<?xml version="1.0" standalone="no"?>
<!DOCTYPE svg PUBLIC "-//W3C//DTD SVG 20010904//EN"
 "http://www.w3.org/TR/2001/REC-SVG-20010904/DTD/svg10.dtd">
<svg version="1.0" xmlns="http://www.w3.org/2000/svg"
 width="100.000000pt" height="100.000000pt" viewBox="0 0 100.000000 100.000000"
 preserveAspectRatio="xMidYMid meet">
<metadata>
Created by potrace 1.11, written by Peter Selinger 2001-2013
</metadata>
<g transform="translate(0.000000,100.000000) scale(0.100000,-0.100000)"
fill="#000000" stroke="none">
<path d="M0 500 l0 -500 500 0 500 0 0 500 0 500 -500 0 -500 0 0 -500z m696
226 c38 -43 38 -80 5 -229 -17 -76 -31 -148 -31 -160 1 -20 3 -20 30 10 33 36
51 41 70 18 10 -12 6 -23 -23 -59 -57 -69 -144 -98 -181 -60 -26 25 -24 55 10
221 28 132 28 170 2 187 -57 35 -156 -129 -189 -312 -9 -53 -18 -77 -33 -88
-27 -19 -85 -18 -92 1 -3 8 3 67 14 132 28 160 35 229 26 255 -7 22 -7 22 -34
-11 -52 -61 -94 -21 -45 44 74 96 195 101 195 7 l0 -36 43 41 c62 61 92 75
156 70 44 -3 59 -9 77 -31z"/>
</g>
</svg>
